<svg width="19" height="21" viewBox="0 0 19 21" fill="none" xmlns="http://www.w3.org/2000/svg">
<path d="M16.5 2.5H12.32C11.9 1.34 10.8 0.5 9.5 0.5C8.2 0.5 7.1 1.34 6.68 2.5H2.5C1.4 2.5 0.5 3.4 0.5 4.5V18.5C0.5 19.6 1.4 20.5 2.5 20.5H16.5C17.6 20.5 18.5 19.6 18.5 18.5V4.5C18.5 3.4 17.6 2.5 16.5 2.5ZM9.5 2.5C10.05 2.5 10.5 2.95 10.5 3.5C10.5 4.05 10.05 4.5 9.5 4.5C8.95 4.5 8.5 4.05 8.5 3.5C8.5 2.95 8.95 2.5 9.5 2.5ZM9.5 6.5C11.16 6.5 12.5 7.84 12.5 9.5C12.5 11.16 11.16 12.5 9.5 12.5C7.84 12.5 6.5 11.16 6.5 9.5C6.5 7.84 7.84 6.5 9.5 6.5ZM15.5 18.5H3.5V17.1C3.5 15.1 7.5 14 9.5 14C11.5 14 15.5 15.1 15.5 17.1V18.5Z" fill="#0E0E2C"/>
</svg>
