<svg width="65" height="65" viewBox="0 0 65 65" fill="none" xmlns="http://www.w3.org/2000/svg">
<circle cx="32.3372" cy="32.2669" r="31.7366" fill="#EBEBFA"/>
<path opacity="0.35" d="M40.8677 45.5551H22.7325C20.2284 45.5551 18.1987 43.5255 18.1987 41.0213V22.8862C18.1987 20.382 20.2284 18.3524 22.7325 18.3524H40.8677C43.3719 18.3524 45.4015 20.382 45.4015 22.8862V41.0213C45.4015 43.5255 43.3719 45.5551 40.8677 45.5551Z" fill="#AAAAC8"/>
<path d="M45.4015 36.4876V41.0214C45.4015 43.5256 43.3719 45.5552 40.8677 45.5552H22.7325C20.2284 45.5552 18.1987 43.5256 18.1987 41.0214V36.4876H24.7606C25.9712 36.4876 27.1515 37.139 27.6215 38.2543C28.3091 39.8819 29.9186 41.0214 31.8001 41.0214C33.6816 41.0214 35.2911 39.8819 35.9788 38.2543C36.4488 37.139 37.6276 36.4876 38.8396 36.4876H45.4015Z" fill="#0B52E4"/>
</svg>
